<svg xmlns="http://www.w3.org/2000/svg" width="500" height="500" viewBox="0 0 500 500"><g transform="translate(153,104)translate(100.5,86)rotate(0)translate(-100.5,-86) scale(1.005,1.005)" opacity="1"><defs class="defs"><linearGradient id="linearGradient_0_c1" class="linearGradient1" gradientTransform="translate(0.5,0.5) rotate(12) translate(-0.5,-0.5)" x1="50%" y1="0%" x2="50%" y2="100%"><stop id="stop1" offset="0%" class="linearGradientColor1" stop-color="#028fcc"/><stop id="stop2" offset="100%" class="linearGradientColor2" stop-color="#028fcc"/></linearGradient><linearGradient id="linearGradient_0_c2" class="linearGradient2" gradientTransform="translate(0.5,0.5) rotate(12) translate(-0.5,-0.5)" x1="50%" y1="0%" x2="50%" y2="100%"><stop id="stop1" offset="0%" class="linearGradientColor1" stop-color="#060606"/><stop id="stop2" offset="100%" class="linearGradientColor2" stop-color="#028fcc"/></linearGradient></defs><path fill="url(#linearGradient_0_c1)" d="M148.081,136.034c5.329,12.814-0.738,27.521-13.551,32.852l0,0c-12.814,5.33-27.521-0.736-32.852-13.551&#10;&#9;L51.606,34.943C46.275,22.13,52.342,7.422,65.157,2.093l0,0C77.969-3.236,92.676,2.83,98.005,15.644L148.081,136.034z" class="color c1"/><path fill="url(#linearGradient_0_c2)" d="M148.372,155.252c-5.291,12.83-19.979,18.939-32.808,13.646l0,0c-12.829-5.291-18.939-19.98-13.648-32.809&#10;&#9;l49.722-120.538c5.293-12.829,19.982-18.939,32.811-13.648l0,0c12.829,5.292,18.938,19.983,13.646,32.811L148.372,155.252z" class="color c2"/><path fill="url(#linearGradient_0_c2)" d="M48.361,155.295c-5.292,12.828-19.981,18.938-32.81,13.646l0,0c-12.83-5.292-18.938-19.982-13.646-32.811&#10;&#9;L51.627,15.595c5.291-12.83,19.98-18.939,32.809-13.647l0,0c12.828,5.292,18.938,19.981,13.648,32.809L48.361,155.295z" class="color c2"/></g><g transform="translate(153,308)translate(97,31.5)rotate(0)translate(-97,-31.5)" opacity="1"><path transform="translate(6,0)rotate(0)" d="M26.60 10.88L26.60 45L19.71 45L9.63 22.62L9.63 45L2.74 45L2.74 10.88L9.63 10.88L19.73 33.28L19.73 10.88L26.60 10.88ZM49.76 24.68L49.76 30.23L39.02 30.23L39.02 39.28L51.73 39.28L51.73 45L32.13 45L32.13 10.88L51.68 10.88L51.68 16.62L39.02 16.62L39.02 24.68L49.76 24.68ZM73.85 10.88L77.86 32.32L81.09 10.88L87.91 10.88L81.84 45L74.93 45L70.95 24.89L67.01 45L60.07 45L53.98 10.88L60.84 10.88L64.05 32.30L68.06 10.88L73.85 10.88ZM107.88 33.63L114.77 33.63L114.77 33.63Q114.52 39.47 111.49 42.47L111.49 42.47L111.49 42.47Q108.47 45.47 102.96 45.47L102.96 45.47L102.96 45.47Q97.17 45.47 94.09 41.66L94.09 41.66L94.09 41.66Q91.01 37.85 91.01 30.80L91.01 30.80L91.01 25.05L91.01 25.05Q91.01 18.02 94.20 14.21L94.20 14.21L94.20 14.21Q97.38 10.41 103.05 10.41L103.05 10.41L103.05 10.41Q108.63 10.41 111.53 13.52L111.53 13.52L111.53 13.52Q114.42 16.64 114.82 22.48L114.82 22.48L107.91 22.48L107.91 22.48Q107.81 18.87 106.79 17.50L106.79 17.50L106.79 17.50Q105.77 16.13 103.05 16.13L103.05 16.13L103.05 16.13Q100.29 16.13 99.14 18.06L99.14 18.06L99.14 18.06Q97.99 19.99 97.92 24.42L97.92 24.42L97.92 30.87L97.92 30.87Q97.92 35.95 99.06 37.85L99.06 37.85L99.06 37.85Q100.20 39.75 102.96 39.75L102.96 39.75L102.96 39.75Q105.68 39.75 106.71 38.43L106.71 38.43L106.71 38.43Q107.74 37.10 107.88 33.63L107.88 33.63ZM143.04 25.17L143.04 31.01L143.04 31.01Q143.04 37.88 139.79 41.67L139.79 41.67L139.79 41.67Q136.55 45.47 130.78 45.47L130.78 45.47L130.78 45.47Q125.04 45.47 121.76 41.71L121.76 41.71L121.76 41.71Q118.48 37.95 118.43 31.17L118.43 31.17L118.43 25.34L118.43 25.34Q118.43 18.30 121.69 14.36L121.69 14.36L121.69 14.36Q124.95 10.41 130.73 10.41L130.73 10.41L130.73 10.41Q136.43 10.41 139.71 14.29L139.71 14.29L139.71 14.29Q142.99 18.16 143.04 25.17L143.04 25.17ZM136.13 31.22L136.13 25.29L136.13 25.29Q136.13 20.67 134.81 18.42L134.81 18.42L134.81 18.42Q133.50 16.17 130.73 16.17L130.73 16.17L130.73 16.17Q127.99 16.17 126.68 18.34L126.68 18.34L126.68 18.34Q125.37 20.51 125.32 24.94L125.32 24.94L125.32 31.01L125.32 31.01Q125.32 35.48 126.66 37.61L126.66 37.61L126.66 37.61Q127.99 39.73 130.78 39.73L130.78 39.73L130.78 39.73Q133.48 39.73 134.79 37.65L134.79 37.65L134.79 37.65Q136.10 35.58 136.13 31.22L136.13 31.22ZM147.98 10.88L156.98 10.88L163.43 35.55L169.85 10.88L178.85 10.88L178.85 45L171.94 45L171.94 35.77L172.57 21.54L165.75 45L161.06 45L154.24 21.54L154.88 35.77L154.88 45L147.98 45L147.98 10.88Z" fill="#000000"/></g><g transform="translate(174,364)translate(76,16)rotate(0)translate(-76,-16)" opacity="1"><path transform="translate(6,0)rotate(0)" d="M11.14 22L9.80 17.55L4.03 17.55L2.71 22L0.50 22L6 4.94L7.84 4.94L13.35 22L11.14 22ZM6.91 7.94L4.59 15.70L9.25 15.70L6.91 7.94ZM26.98 22L23.94 15.10L20.94 15.10L20.94 22L18.79 22L18.79 4.94L23.57 4.94L23.57 4.94Q26.08 4.94 27.37 6.24L27.37 6.24L27.37 6.24Q28.66 7.55 28.66 10.07L28.66 10.07L28.66 10.07Q28.66 11.65 27.96 12.83L27.96 12.83L27.96 12.83Q27.26 14.01 25.98 14.61L25.98 14.61L29.29 21.86L29.29 22L26.98 22ZM20.94 6.79L20.94 13.26L23.55 13.26L23.55 13.26Q24.89 13.26 25.70 12.39L25.70 12.39L25.70 12.39Q26.50 11.52 26.50 10.07L26.50 10.07L26.50 10.07Q26.50 6.79 23.52 6.79L23.52 6.79L20.94 6.79ZM45.32 13.50L45.32 19.88L44.95 20.35L44.95 20.35Q43.33 22.23 40.21 22.23L40.21 22.23L40.21 22.23Q37.45 22.23 35.87 20.40L35.87 20.40L35.87 20.40Q34.29 18.57 34.26 15.21L34.26 15.21L34.26 11.86L34.26 11.86Q34.26 8.28 35.70 6.49L35.70 6.49L35.70 6.49Q37.13 4.70 39.99 4.70L39.99 4.70L39.99 4.70Q42.43 4.70 43.80 6.06L43.80 6.06L43.80 6.06Q45.18 7.42 45.32 9.94L45.32 9.94L43.18 9.94L43.18 9.94Q43.05 8.35 42.29 7.45L42.29 7.45L42.29 7.45Q41.54 6.55 40.00 6.55L40.00 6.55L40.00 6.55Q38.16 6.55 37.31 7.76L37.31 7.76L37.31 7.76Q36.45 8.96 36.42 11.59L36.42 11.59L36.42 15.07L36.42 15.07Q36.42 17.65 37.40 19.03L37.40 19.03L37.40 19.03Q38.38 20.41 40.22 20.41L40.22 20.41L40.22 20.41Q41.96 20.41 42.86 19.56L42.86 19.56L43.18 19.27L43.18 15.33L40.06 15.33L40.06 13.50L45.32 13.50ZM60.13 12.27L60.13 14.11L54.09 14.11L54.09 20.16L61.12 20.16L61.12 22L51.95 22L51.95 4.94L61.00 4.94L61.00 6.79L54.09 6.79L54.09 12.27L60.13 12.27ZM78.13 4.94L78.13 22L75.97 22L69.14 8.85L69.14 22L66.98 22L66.98 4.94L69.14 4.94L76.00 18.14L76.00 4.94L78.13 4.94ZM94.94 4.94L94.94 6.79L90.45 6.79L90.45 22L88.30 22L88.30 6.79L83.83 6.79L83.83 4.94L94.94 4.94ZM102.81 4.94L102.81 22L100.67 22L100.67 4.94L102.81 4.94ZM120.84 4.94L120.84 22L118.68 22L111.85 8.85L111.85 22L109.70 22L109.70 4.94L111.85 4.94L118.71 18.14L118.71 4.94L120.84 4.94ZM136.98 22L135.63 17.55L129.87 17.55L128.54 22L126.34 22L131.84 4.94L133.67 4.94L139.18 22L136.98 22ZM132.75 7.94L130.43 15.70L135.08 15.70L132.75 7.94Z" fill="#000000"/></g></svg>